<svg xmlns="http://www.w3.org/2000/svg" viewBox="0 0 2885.65 1558.59"><defs><style>.cls-1{fill:none}.cls-2{fill:#e34097}.cls-3{fill:#ff9064}.cls-4{fill:#b25834;opacity:.5}.cls-15,.cls-5{fill:#fff}.cls-10,.cls-5{opacity:.3}.cls-6{fill:#102048}.cls-10,.cls-7{fill:#86a7ff}.cls-8{fill:#d3dfff}.cls-9{fill:#adc3ff}.cls-11{fill:#7d69ed}.cls-12,.cls-13{fill:#5b4dad}.cls-13,.cls-22,.cls-29{opacity:.4}.cls-14{fill:#3950a2}.cls-16{fill:#048faa}.cls-17{fill:#60cae7}.cls-18,.cls-19,.cls-29{fill:#1f3c88}.cls-19{opacity:.6}.cls-20{fill:#f9b384}.cls-21{fill:#fac343}.cls-22{fill:#eb5d60}.cls-23{fill:#2a358f}.cls-24{opacity:.8}.cls-25{fill:#232362}.cls-26{fill:#e28b6d}.cls-27{fill:#61cae7}.cls-28{fill:#008f9f}.cls-30{fill:#fbb81d}.cls-31{fill:#fbc343}</style></defs><g id="BACKGROUND"><rect width="2885.65" height="1558.59" class="cls-1"/></g><g id="OBJECTS"><path d="M1346.32,258.44l-3.25-3.87c.89-.76,91-75.79,221.28-113.84,120.35-35.17,300.56-45.12,475.55,107.12l-3.31,3.82C1863.37,101,1685.05,110.78,1565.94,145.53,1436.66,183.26,1347.21,257.69,1346.32,258.44Z" class="cls-2" transform="translate(0 -17.18)"/><path d="M2736.37,1230.75c-18.8-200.3-96.43-352.33-297.59-463.84C2379.45,734,2305.18,718,2269.61,660.2c-35.31-57.34-22.2-130.57-29.19-197.55-18-171.85-182.18-304.74-354-322.92s-342.76,59.63-473.27,172.85C1315.2,397.54,1229.42,506,1106,545.77,902.56,611.38,681.16,465,472.35,510.92,360,535.62,265.73,614.28,196.89,706.46,81.7,860.71,53,1055.74,88.22,1245c19.27,103.53,66.41,208.45,134,289l2421.1-5.06C2714.1,1458.2,2744.43,1316.63,2736.37,1230.75Z" class="cls-2" transform="translate(0 -17.18)"/><circle cx="1001.7" cy="254.51" r="187.07" class="cls-2"/><circle cx="1313.51" cy="104.81" r="77.53" class="cls-2" transform="translate(310.61 942.32) rotate(-45)"/><circle cx="2500.05" cy="645.83" r="77.53" class="cls-2" transform="translate(275.58 1939.78) rotate(-45)"/><path d="M2724.75,1531.86l-4.46-2.37c90.94-171.42,100.57-355.69,26.42-505.56-78-157.56-237.09-263.57-448.06-298.5l.83-5c212.62,35.19,373.05,142.18,451.76,301.24C2826.13,1173,2816.47,1359,2724.75,1531.86Z" class="cls-2" transform="translate(0 -17.18)"/><path d="M236.36,1539.13c-109.54-118-181.83-260.05-209-410.87C2,987.82,18.37,848.47,73.42,735.88,158.47,561.94,323.07,472.31,525,489.94l-.44,5C324.79,477.53,162,566.14,78,738.1,23.38,849.73,7.16,988,32.3,1127.36c27,149.87,98.88,291.07,207.77,408.34Z" class="cls-2" transform="translate(0 -17.18)"/><rect width="650.57" height="366.21" x="302.26" y="1150.31" class="cls-3"/><rect width="233.1" height="366.21" x="302.26" y="1150.31" class="cls-4"/><rect width="89.21" height="60.68" x="644.46" y="1181.75" class="cls-5" transform="translate(-523.02 1883.97) rotate(-90)"/><rect width="1074.65" height="765.18" x="824.33" y="751.33" class="cls-6"/><path d="M2003.62,498H1804.81V316.52a66.29,66.29,0,0,1,132.58-.61v.61l-.05,115.18c0,.56,0,1.16.05,1.72v3.49l.2-.1A66.22,66.22,0,0,0,2003.62,498Z" class="cls-7" transform="translate(0 -17.18)"/><path d="M2069.86,391.65v40.1a66.23,66.23,0,0,1-132.27,5.06Z" class="cls-8" transform="translate(0 -17.18)"/><path d="M1871.1,250.23c-1.42,0-2.78.05-4.15.15-.91.05-1.77.1-2.62.2s-1.88.21-2.84.36c-.55.05-1.11.15-1.66.25-.71.1-1.42.25-2.08.41-1,.2-2,.4-3,.65-1.42.36-2.83.76-4.25,1.27-.71.2-1.41.45-2.07.7s-1.37.51-2,.76a27.53,27.53,0,0,0-2.78,1.22,24.36,24.36,0,0,0-2.43,1.16c-.2.1-.46.2-.71.35-.71.36-1.42.76-2.12,1.17a59,59,0,0,0-7.94,5.31c-.71.55-1.47,1.16-2.13,1.71s-1.51,1.32-2.27,2-1.47,1.41-2.17,2.12a66.92,66.92,0,0,0-5.57,6.42c-.76,1-1.46,2-2.17,3a74.17,74.17,0,0,0-5.82,10.66c-.4.91-.75,1.87-1.16,2.84a76,76,0,0,0-2.68,8.89c-.2,1.07-.4,2.08-.61,3.09-.35,2.07-.65,4.2-.8,6.32V1241.1H918.86V353.58a103.34,103.34,0,0,1,103.35-103.35Z" class="cls-8" transform="translate(0 -17.18)"/><rect width="672.48" height="35.39" x="1023.62" y="327.81" class="cls-9"/><rect width="620.37" height="35.39" x="1023.62" y="431.46" class="cls-9"/><rect width="587.67" height="35.39" x="1023.62" y="535.11" class="cls-9"/><rect width="672.48" height="35.39" x="1023.62" y="638.77" class="cls-9"/><rect width="364.58" height="35.39" x="1283.49" y="743.68" class="cls-9"/><path d="M1356.87,959.6c-4,0-7.73-1.37-10.27-4.87-3.12-4.32-2.9-10.23-2.76-14.14l3.44-91.47,5,.19-3.43,91.46c-.16,4.26-.14,8.31,1.79,11,4.3,5.93,14.64.8,16.67-.29,10.18-5.46,17.49-15.74,24.56-25.68,7.86-11,16-22.47,28.28-27.84,7.3-3.19,12.66,1.49,17,5.23,2.45,2.12,4.76,4.12,7.21,4.85,6.43,1.89,12.83.23,19.6-1.54,6-1.57,12.19-3.2,18.56-2.21,5.82.89,10.52,3.21,15.08,5.45,6.71,3.32,12.53,6.19,20.92,4.15,11.58-2.79,22.34-9.38,32.74-15.75,3-1.85,6-3.7,9.07-5.46,11.69-6.8,29.26-15.36,46.75-11.35l-1.13,4.93c-15.77-3.61-32.14,4.42-43.09,10.79-3,1.75-6,3.57-9,5.4-10.74,6.58-21.85,13.38-34.2,16.36-10.19,2.45-17.4-1.09-24.36-4.53-4.2-2.08-8.54-4.22-13.59-5-5.35-.8-10.77.61-16.52,2.11-7.15,1.86-14.51,3.8-22.32,1.49-3.49-1-6.33-3.49-9.08-5.87-4.51-3.91-7.48-6.21-11.64-4.42-11,4.81-18.38,15.17-26.18,26.14-7.41,10.41-15.07,21.18-26.29,27.2A28.45,28.45,0,0,1,1356.87,959.6Z" class="cls-6" transform="translate(0 -17.18)"/><path d="M1805.07,800.55V1241.1H918.86V762.18l276.83,230.31c15.27,12.74,35.29,17.59,55,14.81a105.36,105.36,0,0,1,17.44-1l188.7,5.31a106.75,106.75,0,0,1,19.32,2.38c19.56,4.24,40,.35,56.17-11.58Z" class="cls-10" transform="translate(0 -17.18)"/><polygon points="1228.4 1068.55 1221.02 1076.74 887.51 1446.56 824.36 1516.53 824.36 751.32 1228.4 1068.55" class="cls-11"/><polygon points="1898.99 751.33 1494.92 1068.55 1898.99 1516.51 1898.99 751.33" class="cls-11"/><path d="M1221,1093.92,887.51,1463.73l-63.15,13.91v-136c166.7-119.48,353.73-258,396.46-261Z" class="cls-12" transform="translate(0 -17.18)"/><path d="M1502.32,1093.92l333.51,369.81,63.16,13.91v-136c-166.71-119.48-353.74-258-396.46-261Z" class="cls-12" transform="translate(0 -17.18)"/><path d="M1899,1533.69H824.33l.2-100.66,370.31-335.94a105.63,105.63,0,0,1,71-27.39h188.78a105.67,105.67,0,0,1,70.12,26.63L1900,1429.55Z" class="cls-11" transform="translate(0 -17.18)"/><circle cx="1827.57" cy="1349.14" r="184.55" class="cls-13" transform="translate(-418.7 1670.26) rotate(-45)"/><circle cx="1883.18" cy="1349.14" r="184.55" class="cls-14" transform="translate(-402.41 1709.59) rotate(-45)"/><path d="M1879.23,1449.14a31.19,31.19,0,0,1-23.16-10.3l-65.29-72.09a15.17,15.17,0,0,1,22.49-20.37l65.29,72.1a.89.89,0,0,0,.88.3.85.85,0,0,0,.73-.57l70.28-160a15.17,15.17,0,1,1,27.78,12.2l-70.28,160a31.45,31.45,0,0,1-28.72,18.73Z" class="cls-15" transform="translate(0 -17.18)"/><polygon points="602.27 1048.32 608.17 1150.29 764.91 1150.29 694.12 1092.14 689.91 1048.32 662.1 1021.36 602.27 1048.32" class="cls-6"/><polygon points="414.34 1002.82 389.06 1093.83 518 1150.29 480.07 1064.34 489.34 1025.57 457.32 983.44 414.34 1002.82" class="cls-6"/><path d="M464.06,568.3S448.89,631.51,454,770.55c0,0-44.66,155.9-39.61,249.44l75,22.76c39.3-87.31,71.61-171.31,88.8-248.13a136.23,136.23,0,0,0-.47-83.38L541.59,601.17Z" class="cls-16" transform="translate(0 -17.18)"/><path d="M701.79,773.45l-11.88,292H602.28C579.43,970.39,570.94,889.19,568,834.78c-2.48-45.86-1.06-72.65-1.06-72.65-56.33-66.49-89.8-114.53-109.27-150.07-28.92-52.74-27.15-78.12-23.91-96,4.35-23.82,19.82-54.66,30.29-73.62,5.86-10.52,10.16-17.4,10.16-17.4l146.63,47.23L603.3,535.5l-.31,1.07a37.06,37.06,0,0,0,3.59,28.26l76.91,133.94A138.84,138.84,0,0,1,701.79,773.45Z" class="cls-17" transform="translate(0 -17.18)"/><path d="M656.2,1067.4h-.12a1.89,1.89,0,0,1-1.77-2c.18-2.93,18.26-293.32-3.2-339.54-3.77-8.12-10.16-18.48-17.57-30.47-31-50.21-82.81-134.23-71.93-255.33a1.9,1.9,0,1,1,3.78.34c-10.77,119.84,40.66,203.19,71.38,253,7.47,12.1,13.91,22.56,17.78,30.88,21.86,47.08,4.3,329.38,3.54,341.37A1.89,1.89,0,0,1,656.2,1067.4Z" class="cls-18" transform="translate(0 -17.18)"/><path d="M620.79,472.25,603.3,535.5c-67.45-27.75-116-70-139.3-93.08,5.86-10.52,10.16-17.4,10.16-17.4Z" class="cls-19" transform="translate(0 -17.18)"/><path d="M645.57,1113.41l-1.49-25.33,48.32-.88a1.8,1.8,0,0,1,1.93,1.86,1.89,1.89,0,0,1-1.86,1.93l-44.37.81,1,17.65,44.9-2a1.9,1.9,0,0,1,.17,3.79Z" class="cls-15" transform="translate(0 -17.18)"/><path d="M480.07,1083.41a1.88,1.88,0,0,1-.57-.09L437.9,1070l10.38-24.21,36.65,13.25a1.9,1.9,0,1,1-1.29,3.57l-33.29-12L443,1067.7l37.62,12a1.89,1.89,0,0,1-.58,3.7Z" class="cls-15" transform="translate(0 -17.18)"/><polygon points="672.62 175.26 669.89 185.47 658.97 226.78 651.58 254.49 585.85 230.88 617.55 166.01 633.03 143.66 672.62 175.26" class="cls-20"/><path d="M669.89,202.65,659,244c-19.36-21-15.42-47.28-15.42-47.28Z" class="cls-6" transform="translate(0 -17.18)"/><path d="M721.93,134.31s-4.21,93.54-51.4,85.53-46.35-88.48-46.35-88.48l61.52-19.81Z" class="cls-20" transform="translate(0 -17.18)"/><path d="M656.41,148.42s27.07-27.91,65.52-14.11c0,0,17,7.16,23.6-6.74,0,0-54.36-72.06-97-37.29,0,0-76.47,16.74-31,92.9Z" class="cls-21" transform="translate(0 -17.18)"/><ellipse cx="657.24" cy="150.53" class="cls-20" rx="14.52" ry="16.64" transform="translate(-15.5 88.2) rotate(-9.06)"/><circle cx="715.19" cy="181.5" r="8.43" class="cls-20" transform="translate(421.76 841.33) rotate(-80.81)"/><circle cx="682.54" cy="155.68" r="14.54" class="cls-22"/><path d="M955.36,324.15s8.7,11.94-9.05,23.87c0,0,14.11,9.66-34.53,25.58-5.41,1.77-11.58,3.59-18.66,5.51L873.6,308.23s86.82-29.33,89-19.93-15.52,22.1-15.52,22.1S978.17,302.76,955.36,324.15Z" class="cls-20" transform="translate(0 -17.18)"/><path d="M873.61,308.21l-102.8,13.18s-147.9-105.34-178.23-95.23S459.85,400.6,459.85,400.6,432,409.45,433.3,420.83s180.77,104.49,204.78,80.9c15.11-14.84,32.45-133.15,32.45-133.15l65.41,27.21a101.14,101.14,0,0,0,61.3,5.22l95.91-21.88Z" class="cls-23" transform="translate(0 -17.18)"/><g class="cls-24"><path d="M867.11,371.54c-3.54-13.8-7-27.27-10.12-40.22-.87-3.61-1.67-7.29-2.47-11-.68-3.13-1.38-6.27-2.12-9.4l-3.78.49c.76,3.23,1.49,6.48,2.19,9.71.81,3.73,1.62,7.45,2.5,11.08,3.14,13,6.59,26.45,10.12,40.27q1.62,6.33,3.24,12.69l3.7-.84Q868.73,377.93,867.11,371.54Z" class="cls-15" transform="translate(0 -17.18)"/><path d="M691.12,268.8c-1.56.33-3.12.68-4.68,1-28.49,5.94-59,10.74-88.77,5.7a114.93,114.93,0,0,1-40.86-15.06c-.8,1-1.6,2-2.41,3A118.61,118.61,0,0,0,597,279.24c30.42,5.14,61.32.28,90.17-5.72,2.86-.6,5.72-1.23,8.58-1.85Z" class="cls-15" transform="translate(0 -17.18)"/><path d="M651.74,450.93c-8.56.71-17.41,1.45-26,.64-25.25-2.35-47.65-18.06-62.3-29.67-5.2-4.12-10.28-8.39-15.37-12.67-12.94-10.88-26.32-22.12-41.38-30.51a105.8,105.8,0,0,0-26.18-10.38c-.75,1.15-1.45,2.22-2.16,3.33A101.24,101.24,0,0,1,504.84,382c14.74,8.2,28,19.33,40.78,30.09,5.11,4.3,10.23,8.6,15.45,12.74,15,11.91,38,28,64.31,30.48,8.93.82,18,.08,26.67-.64l2.6-.18c.29-1.28.58-2.57.88-3.86C654.26,450.77,653,450.83,651.74,450.93Z" class="cls-15" transform="translate(0 -17.18)"/></g><path d="M670.53,368.58,643.9,356.9s6.8,42.31,19.64,48.35Z" class="cls-25" transform="translate(0 -17.18)"/><path d="M911.78,373.6c-5.41,1.77-11.58,3.59-18.66,5.51L873.6,308.23Z" class="cls-26" transform="translate(0 -17.18)"/><path d="M2081.64,801.31l61.94,27.81,46.16-151.94-60.46-15.89C2113.3,697,2097,742.72,2081.64,801.31Z" class="cls-26" transform="translate(0 -17.18)"/><path d="M2129.28,661.29l60.46,15.89,51.6-141.74S2179,527,2129.28,661.29Z" class="cls-6" transform="translate(0 -17.18)"/><polygon points="2055.94 731.47 2011.28 854.5 2178.13 918.55 2211.84 790.46 2055.94 731.47" class="cls-6"/><path d="M2110.83,912.6c-1.21,3.48-11.2,7.64-17.61,1.95-12.49-2.21-20.92-3.79-28.71-12.4-7-2.69-10.14-10.3-6.94-16.72,6.13-12.29,15.63-29.61,20.14-28.93,5.67.86,1.57,18.36,1.57,18.36s9.44-22.2,18.41-19.27c4,1.32-5.62,22.45-6.59,24.68,1.51-2,13.5-18.15,18.09-14.77s-6.59,22.5-7.78,24.53c1.3-1.62,11.83-14.31,17-10.12C2120.59,881.77,2117.1,894.66,2110.83,912.6Z" class="cls-26" transform="translate(0 -17.18)"/><path d="M2424.2,1336s80.9-8.85,115-83.43l-89.74,5.06Z" class="cls-6" transform="translate(0 -17.18)"/><polygon points="2513.53 1236.25 2436 1284.28 2470.88 1335.51 2545.64 1284.58 2513.53 1236.25" class="cls-26"/><polygon points="2593.59 1356.76 2545.64 1284.58 2470.88 1335.51 2483.61 1354.23 2476.03 1454.09 2593.59 1356.76" class="cls-6"/><rect width="38.01" height="5.05" x="2483.59" y="1367.92" class="cls-15" transform="translate(-66.39 111.73) rotate(-2.91)"/><polygon points="2292.74 1372.77 2207.63 1367.71 2207.63 1436.63 2299.19 1430.81 2292.74 1372.77" class="cls-26"/><polygon points="2207.63 1436.63 2207.63 1452.83 2143.58 1516.87 2308.75 1516.87 2299.19 1430.81 2207.63 1436.63" class="cls-6"/><rect width="5.06" height="41.94" x="2221.3" y="1460.83" class="cls-15" transform="translate(-174.29 2643.66) rotate(-59.86)"/><path d="M2288.44,950c-1.31,31.35-1.56,64.42-1,97.74.51,28.92,1.57,58,3.09,86.51,7.28,141.43,24.12,266.67,24.12,266.67l-131.47,16.89c-62.34-434.84-21.89-618.58-21.89-618.58l57.29-11.68,50.86-10.37,57-11.63c-.71,1.06-1.42,2.18-2.08,3.34-8.69,14.21-15.57,33.12-20.88,55.57C2295.17,859.36,2290.52,902.74,2288.44,950Z" class="cls-27" transform="translate(0 -17.18)"/><path d="M2290.52,1134.21c-55.12-117.15-34.44-210.28-34.44-210.28l32.36,26c-1.31,31.35-1.56,64.42-1,97.74C2287.94,1076.62,2289,1105.75,2290.52,1134.21Z" class="cls-28" transform="translate(0 -17.18)"/><path d="M2539.23,1252.58c-63.2,24-115,83.43-115,83.43-54.55-96.42-101.12-193.25-136.77-288.31-29.68-79.08-51.77-156.94-64.57-232.28-1.56-9.36-3-18.66-4.29-27.91-.16-.86-.31-1.77-.41-2.63l51.27-7.74,55-8.29,27.76-4.2c3,17.7,7,36.21,11.78,55.27C2411.77,1010.24,2539.23,1252.58,2539.23,1252.58Z" class="cls-27" transform="translate(0 -17.18)"/><g class="cls-24"><path d="M2428,1010.16q-1.21-3-2.41-6c-10.35-6.63-20.27-13.92-28.8-22.67C2373,957,2360.92,920.83,2365.36,887a111.37,111.37,0,0,1,8.57-30.35c-.54-1.85-1.06-3.68-1.59-5.52a116.32,116.32,0,0,0-10.75,35.37c-4.57,35,7.88,72.4,32.5,97.66C2404.11,994.41,2415.86,1002.67,2428,1010.16Z" class="cls-15" transform="translate(0 -17.18)"/><path d="M2494.16,1161.16c-.53-1.12-1.06-2.24-1.59-3.38-14,5.7-30.66,6.68-48,7.67-17.51,1-35.61,2-51.48,8.21-16.13,6.29-28.64,17.51-37.73,31.27.65,1.33,1.31,2.67,2,4,8.77-14,21.06-25.47,37.14-31.75,15.32-6,33.12-7,50.32-8S2479.36,1167.23,2494.16,1161.16Z" class="cls-15" transform="translate(0 -17.18)"/><path d="M2191.29,1146.76c42.05,21.35,76.11,57.14,106.23,90.71q-.26-3.1-.51-6.24c-29.52-32.73-62.91-67-104-87.85a177.2,177.2,0,0,0-40.1-14.68c.08,1.32.16,2.64.25,4A173.94,173.94,0,0,1,2191.29,1146.76Z" class="cls-15" transform="translate(0 -17.18)"/><path d="M2307.59,1341.81c-10.52,2.51-22,1.88-31.53-.35-9.89-2.31-19.59-6.15-29-9.84-10-3.95-20.32-8-31-10.37a102.06,102.06,0,0,0-45.5.73c.15,1.26.31,2.54.47,3.8a98.44,98.44,0,0,1,44.22-.83c10.43,2.28,20.61,6.3,30.45,10.19,9.51,3.75,19.33,7.63,29.49,10a74.78,74.78,0,0,0,32.81.44C2307.87,1344.36,2307.73,1343.08,2307.59,1341.81Z" class="cls-15" transform="translate(0 -17.18)"/><path d="M2179.89,985.84c1.38,26.48-10.63,52.53-30.39,69.75.05,1.6.11,3.25.17,4.87,22-17.92,35.5-46.15,34-74.82-1.33-25.49-14.46-49.37-34-65.27q-.11,2.36-.18,4.77C2167,940.34,2178.66,962.38,2179.89,985.84Z" class="cls-15" transform="translate(0 -17.18)"/></g><path d="M2363.93,819.92a313.91,313.91,0,0,1-60.42,4.5,460.73,460.73,0,0,1-80.65-9c-36.7-7.23-61.58-16.23-61.58-16.23l57.29-11.68c-.16-.86-.31-1.77-.41-2.63l51.27-7.74,57-11.63c-.71,1.06-1.42,2.18-2.08,3.34l27.76-4.2C2355.14,782.35,2359.13,800.86,2363.93,819.92Z" class="cls-29" transform="translate(0 -17.18)"/><path d="M2287.43,1050.23a2.52,2.52,0,0,1-2.38-1.68l-36.52-102.7-43.9-26.5a2.53,2.53,0,0,1,2.62-4.33l45.44,27.43,37.12,104.41a2.51,2.51,0,0,1-1.53,3.22A2.31,2.31,0,0,1,2287.43,1050.23Z" class="cls-18" transform="translate(0 -17.18)"/><path d="M2373.64,784.27c-84.69,32.21-230.06,14.11-230.06,14.11,5.92-61.54,6.32-243.56,101.13-266.31l42.37,4.45c22.2,8.69,39.54,41.86,52.58,81.25,7.84,23.46,14.11,49.15,19.07,73.21C2369.14,741.29,2373.64,784.27,2373.64,784.27Z" class="cls-18" transform="translate(0 -17.18)"/><path d="M2358.73,691c-39.9-23.2-48.29-75.49-48.29-75.49l29.22,2.28C2347.5,641.23,2353.77,666.92,2358.73,691Z" class="cls-6" transform="translate(0 -17.18)"/><path d="M2287.05,536.49,2281.36,618l87,46.47L2386,580C2309.49,534.83,2287.05,536.49,2287.05,536.49Z" class="cls-18" transform="translate(0 -17.18)"/><path d="M2452.82,648.56a59.52,59.52,0,0,1-23.66,20.78,59,59,0,0,1-53.65-1.06l-7.13-3.79L2386,580c4.7,2.83,9.61,5.76,14.81,9,0,0,68.87-97.33,73.93-95.41,4.55,1.67-3.19,16.73-4.76,19.72,3-4.4,25.34-37.17,31.3-34.89,4.75,1.77-1.26,16.33-2,18.1,1.36-2,13.35-19.62,20.58-15.37,3.34,2-9.56,21.08-10.82,23,1.57-1.51,15.87-15.37,19.41-11.22s-10.26,20.73-11.83,22.6c1.42-1.26,13.65-11.93,17.55-6.77C2539.28,515.33,2476.69,612.16,2452.82,648.56Z" class="cls-26" transform="translate(0 -17.18)"/><path d="M2445.79,657.31a57.86,57.86,0,0,1-16.63,12,59,59,0,0,1-29.38,5.82,23.28,23.28,0,0,1-.66-5.61,24.94,24.94,0,0,1,46.67-12.24Z" class="cls-22" transform="translate(0 -17.18)"/><path d="M2234.7,781.25c-37.38,0-70.86-2.39-87.29-3.79l-2-.17a1.9,1.9,0,0,1,.05-3.79c.13,0,.9.06,2.25.18,37.44,3.21,164,11.58,221.32-15.17a1.9,1.9,0,0,1,1.6,3.44C2337.85,777.25,2283,781.25,2234.7,781.25Z" class="cls-7" transform="translate(0 -17.18)"/><path d="M2254.55,589.55c-20.11,0-29-13.28-29.13-13.48a1.89,1.89,0,0,1,3.18-2.06c.66,1,16.53,24.32,56.5,2.73a1.9,1.9,0,1,1,1.8,3.34C2273.92,587.09,2263.19,589.55,2254.55,589.55Z" class="cls-7" transform="translate(0 -17.18)"/><path d="M2321.11,378c10.61-6,24.94-6.51,34.36,1.22,4.91,4,8.06,9.81,12.62,14.23,9.77,9.49,25,11.88,34.32,21.77,7.23,7.64,9.81,18.79,9.09,29.28s-4.41,20.54-8.33,30.3c-5.59,13.94-12,28.1-23.21,38.15-4.26,3.83-9.26,7-14.86,8.32s-11.83.46-16.38-3c-4.8-3.7-7.17-9.88-7.59-15.92s.87-12.06,2.15-18a9.59,9.59,0,0,0,14.55-9.31c-.72-6-6.67-9.82-12-12.74l-26.49-14.51c-5.17-2.84-10.45-5.76-14.34-10.19-6.5-7.4-11.72-23.67-7.42-33C2302.35,394.21,2311.13,383.61,2321.11,378Z" class="cls-30" transform="translate(0 -17.18)"/><path d="M2216.27,427.15s-.55-59.91,73.85-44.12a55.17,55.17,0,0,1,31.69,19.47c12.11,15,19.87,78-14.74,95.44C2263.67,519.85,2216.27,427.15,2216.27,427.15Z" class="cls-31" transform="translate(0 -17.18)"/><path d="M2293.35,477.71l-1.72,60.17a29.39,29.39,0,0,1-27.81,28.47c-.51,0-1,0-1.52,0a29.38,29.38,0,0,1-29.22-31.91l.1-1,3.94-45.71,5-.91Z" class="cls-26" transform="translate(0 -17.18)"/><path d="M2267.86,499.2a69.9,69.9,0,0,1-34.68,34.33l3.94-45.71,5-.91Z" class="cls-6" transform="translate(0 -17.18)"/><path d="M2216.27,427.15s-19,79,20.85,82.79,56.25-32.23,56.25-32.23l5.06-44.87-24.65-35.4-39.19,12Z" class="cls-26" transform="translate(0 -17.18)"/><path d="M2216.27,427.15s36.63-20.55,49.93,7c9.27,19.17,23.38,29.71,37.29,23.39s2.52-51.83,2.52-51.83l-51.82-13.27-31,17.69Z" class="cls-31" transform="translate(0 -17.18)"/><ellipse cx="2292.9" cy="459.24" class="cls-26" rx="17.31" ry="14.31" transform="translate(748.72 2198.14) rotate(-60)"/><path d="M2289,466.12h-.09a1.26,1.26,0,0,1-1.17-1.35c.32-4.49,3.16-13,11.58-13a1.27,1.27,0,1,1,0,2.53c-8.17,0-9,10.19-9.06,10.62A1.26,1.26,0,0,1,2289,466.12Z" class="cls-6" transform="translate(0 -17.18)"/><path d="M2222.3,455.52a3.23,3.23,0,1,1-3.23-3.22A3.23,3.23,0,0,1,2222.3,455.52Z" class="cls-6" transform="translate(0 -17.18)"/><circle cx="2243.76" cy="438.1" r="3.58" class="cls-6"/><path d="M2229.05,475.2c-2.8,0-4.7-.88-5.65-2.62-2.51-4.55,3.29-13.11,4.47-14.77a1.27,1.27,0,0,1,2.07,1.46c-3.08,4.32-5.56,9.86-4.33,12.1.53,1,1.92,1.39,4.07,1.29h.07a1.27,1.27,0,0,1,.07,2.53C2229.55,475.2,2229.3,475.2,2229.05,475.2Z" class="cls-6" transform="translate(0 -17.18)"/><circle cx="2261.69" cy="469.73" r="11.3" class="cls-22" transform="translate(-7.6 884.09) rotate(-22.5)"/><path d="M2230.62,486.13a13.83,13.83,0,0,1-6-1.28,1.26,1.26,0,0,1,1.17-2.24c.29.14,7.1,3.5,14.17-3a1.26,1.26,0,0,1,1.7,1.86A16.1,16.1,0,0,1,2230.62,486.13Z" class="cls-6" transform="translate(0 -17.18)"/><path d="M2226.15,448.39a32.16,32.16,0,0,0-6.54-1.16,8.37,8.37,0,0,0-2.87.32,16.59,16.59,0,0,0-3.08,1.16l-.12.05a.78.78,0,0,1-1-1,6.77,6.77,0,0,1,2.85-3.2,8.41,8.41,0,0,1,4.35-1,10.06,10.06,0,0,1,7.28,3.72.77.77,0,0,1-.77,1.22Z" class="cls-6" transform="translate(0 -17.18)"/><path d="M2235.52,447.3a11.4,11.4,0,0,1,8.75-5.55,9.67,9.67,0,0,1,5.43,1.21,10.14,10.14,0,0,1,3.74,3.67.76.76,0,0,1-1,1.1l-.08,0a28.34,28.34,0,0,0-4-1.71,8.89,8.89,0,0,0-3.83-.48c-2.58.05-5.22,1.36-7.91,2.79l-.09,0a.75.75,0,0,1-1-.31A.76.76,0,0,1,2235.52,447.3Z" class="cls-6" transform="translate(0 -17.18)"/><rect width="2806.22" height="5.06" x="32.6" y="1514.34" class="cls-6"/></g></svg>